<?xml version="1.0" encoding="UTF-8"?>
<!DOCTYPE svg PUBLIC "-//W3C//DTD SVG 1.0//EN" "http://www.w3.org/TR/2001/REC-SVG-20010904/DTD/svg10.dtd">
<!-- Creator: CorelDRAW X6 -->
<svg xmlns="http://www.w3.org/2000/svg" xml:space="preserve" width="1264px" height="593px" version="1.0" style="shape-rendering:geometricPrecision; text-rendering:geometricPrecision; image-rendering:optimizeQuality; fill-rule:evenodd; clip-rule:evenodd"
viewBox="0 0 517 242"
 xmlns:xlink="http://www.w3.org/1999/xlink">
 <defs>
  <style type="text/css">
   <![CDATA[
    .fil1 {fill:#F49A11}
    .fil2 {fill:#FEFEFE}
    .fil0 {fill:#D9DADA;fill-rule:nonzero}
    .fil3 {fill:url(#id4)}
   ]]>
  </style>
   <mask id="id0">
  <linearGradient id="id1" gradientUnits="userSpaceOnUse" x1="248.108" y1="204.147" x2="18.675" y2="204.147">
   <stop offset="0" style="stop-opacity:1; stop-color:white"/>
   <stop offset="1" style="stop-opacity:0; stop-color:white"/>
  </linearGradient>
    <rect style="fill:url(#id1)" y="200" width="267" height="9"/>
   </mask>
   <mask id="id2">
  <linearGradient id="id3" gradientUnits="userSpaceOnUse" x1="268.08" y1="204.147" x2="497.513" y2="204.147">
   <stop offset="0" style="stop-opacity:1; stop-color:white"/>
   <stop offset="1" style="stop-opacity:0; stop-color:white"/>
  </linearGradient>
    <rect style="fill:url(#id3)" x="249" y="200" width="267" height="9"/>
   </mask>
  <linearGradient id="id4" gradientUnits="userSpaceOnUse" x1="395.499" y1="116.964" x2="372.953" y2="18.6687">
   <stop offset="0" style="stop-color:#EF7F1A"/>
   <stop offset="1" style="stop-color:#FFED00"/>
  </linearGradient>
 </defs>
 <g id="Слой_x0020_1">
  <metadata id="CorelCorpID_0Corel-Layer"/>
  <path class="fil0" d="M8 225l-1 7c-1,6 4,10 16,10 11,0 18,-3 19,-10l1 -7c1,-6 -4,-11 -16,-11 -11,0 -18,4 -19,10zm24 0l-1 7c0,2 -3,3 -7,3 -4,0 -6,-1 -6,-3l1 -7c0,-2 3,-3 7,-3 4,0 6,1 6,3z"/>
  <path id="1" class="fil0" d="M77 216l-24 0c-2,0 -2,0 -3,2l-5 23c0,1 0,2 2,2l6 0c2,0 2,0 3,-2l2 -7 12 0c2,0 3,0 3,-2l1 -3c0,-1 0,-2 -2,-2l-12 0 1 -4 15 0c2,0 2,0 3,-2l1 -3c0,-1 0,-2 -2,-2z"/>
  <path id="2" class="fil0" d="M110 216l-24 0c-2,0 -2,0 -3,2l-5 23c0,1 0,2 2,2l6 0c2,0 2,0 3,-2l2 -7 12 0c2,0 3,0 3,-2l1 -3c0,-1 0,-2 -2,-2l-12 0 1 -4 15 0c2,0 2,0 3,-2l1 -3c0,-1 0,-2 -2,-2z"/>
  <path id="3" class="fil0" d="M117 217l-5 23c0,1 0,1 2,1l7 0c2,0 2,0 3,-1l5 -23c0,-1 0,-1 -2,-1l-7 0c-2,0 -2,0 -3,1z"/>
  <path id="4" class="fil0" d="M132 225l-1 7c-1,6 4,10 16,10 9,0 15,-2 18,-6 1,-1 1,-2 -1,-2l-6 -1c-2,0 -2,0 -3,1 -1,2 -3,2 -6,2 -5,0 -6,-1 -6,-4l1 -7c1,-3 3,-4 7,-4 3,0 5,1 5,2 0,1 1,1 3,1l6 -1c2,0 2,-1 2,-2 -1,-4 -6,-6 -15,-6 -11,0 -18,3 -19,10z"/>
  <path id="5" class="fil0" d="M172 217l-5 23c0,1 0,1 2,1l7 0c2,0 2,0 3,-1l5 -23c0,-1 0,-1 -2,-1l-7 0c-2,0 -2,0 -3,1z"/>
  <path id="6" class="fil0" d="M222 240l-8 -23c0,-1 -1,-1 -3,-1l-6 0c-2,0 -2,0 -3,1l-18 23c-1,1 -1,1 1,1l6 0c3,0 4,0 4,-2l2 -3 12 0 1 3c0,1 1,2 4,2l6 0c2,0 2,-1 2,-1zm-15 -13l1 4 -7 0 3 -4c2,-2 2,-5 2,-5l1 0c0,0 0,3 0,5z"/>
  <path id="7" class="fil0" d="M239 216l-6 0c-2,0 -2,0 -3,2l-5 23c0,1 0,2 2,2l23 0c2,0 2,0 3,-2l1 -3c0,-1 0,-2 -2,-2l-14 0 4 -18c0,-1 0,-2 -2,-2z"/>
  <path id="8" class="fil0" d="M297 216l-14 0c-2,0 -2,0 -3,2l-5 23c0,1 0,2 2,2l14 0c11,0 18,-3 19,-10l1 -5c1,-6 -4,-11 -15,-11zm4 10l-1 5c-1,3 -3,4 -7,4l-5 0 3 -13 5 0c5,0 6,1 6,4z"/>
  <path id="9" class="fil0" d="M347 216l-24 0c-2,0 -2,0 -3,2l-5 23c0,1 0,2 2,2l24 0c2,0 3,0 3,-2l1 -3c0,-1 0,-2 -2,-2l-16 0 1 -3 12 0c2,0 2,0 3,-2l1 -3c0,-1 0,-2 -2,-2l-12 0 1 -3 15 0c2,0 2,0 3,-2l1 -3c0,-1 0,-2 -2,-2z"/>
  <path id="10" class="fil0" d="M386 240l-8 -23c0,-1 -1,-1 -3,-1l-6 0c-2,0 -2,0 -3,1l-18 23c-1,1 -1,1 1,1l6 0c3,0 4,0 4,-2l2 -3 12 0 1 3c0,1 1,2 4,2l6 0c2,0 2,-1 2,-1zm-15 -13l1 4 -7 0 3 -4c2,-2 2,-5 2,-5l1 0c0,0 0,3 0,5z"/>
  <path id="11" class="fil0" d="M403 216l-6 0c-2,0 -2,0 -3,2l-5 23c0,1 0,2 2,2l23 0c2,0 2,0 3,-2l1 -3c0,-1 0,-2 -2,-2l-14 0 4 -18c0,-1 0,-2 -2,-2z"/>
  <path id="12" class="fil0" d="M452 216l-24 0c-2,0 -2,0 -3,2l-5 23c0,1 0,2 2,2l24 0c2,0 3,0 3,-2l1 -3c0,-1 0,-2 -2,-2l-16 0 1 -3 12 0c2,0 2,0 3,-2l1 -3c0,-1 0,-2 -2,-2l-12 0 1 -3 15 0c2,0 2,0 3,-2l1 -3c0,-1 0,-2 -2,-2z"/>
  <path id="13" class="fil0" d="M478 216l-16 0c-2,0 -2,0 -3,2l-5 23c0,1 0,2 2,2l6 0c2,0 2,0 3,-2l1 -7 1 0c3,0 3,1 4,2l3 5c1,1 2,2 5,2l6 0c2,0 2,-1 2,-2l-4 -6c0,-1 -1,-1 -1,-2 4,-1 7,-4 8,-7 1,-6 -4,-9 -12,-9zm1 9c0,1 -2,2 -4,2l-6 0 1 -5 6 0c2,0 4,1 3,2z"/>
  <polygon class="fil1" style="mask:url(#id0)" points="0,200 267,200 267,209 0,209 "/>
  <polygon class="fil1" style="mask:url(#id2)" points="516,200 249,200 249,209 516,209 "/>
 </g>
 <g id="НјІг_x0020_1">
  <metadata id="CorelCorpID_1Corel-Layer"/>
  <path class="fil2" d="M128 86l-69 0c0,0 -13,-1 -23,6 -9,6 -17,15 -20,29l-14 73 42 0 9 -45 63 0 4 -18 -63 0c0,0 1,-9 7,-18 5,-6 16,-6 16,-6l45 0 4 -20zm282 35l27 41 -42 32 28 0 23 -18 12 18 42 0 -27 -40 43 -33 -28 0 -25 19 -13 -19 -42 0zm-51 0l-14 73 42 0 14 -73 -42 0zm-128 73l25 0 8 -43c0,0 19,28 23,34 5,6 10,9 16,9 6,0 31,0 31,0l14 -73 -23 0 -9 47 -27 -40c-5,-7 -15,-7 -15,-7l-30 0 -14 73zm5 -73l-78 0c0,0 -25,2 -32,31 -8,28 -2,42 20,42 22,0 76,0 76,0l3 -14c0,0 -50,0 -51,0 -4,-1 -13,-7 -8,-17l63 0 2 -11 -63 0c0,0 2,-13 16,-17l50 0 3 -14z"/>
  <path class="fil3" d="M424 0c0,0 -27,48 -42,54 -19,9 -43,-7 -43,-7 0,0 24,15 22,41 -3,26 -14,48 -14,48 0,0 18,-32 37,-39 15,-6 27,-6 47,1 0,0 -26,-12 -27,-32 0,-19 13,-50 21,-66l0 0z"/>
 </g>
</svg>
