<?xml version="1.0" encoding="UTF-8"?>
<!DOCTYPE svg PUBLIC "-//W3C//DTD SVG 1.1//EN" "http://www.w3.org/Graphics/SVG/1.1/DTD/svg11.dtd">
<!-- Creator: CorelDRAW X6 -->
<svg xmlns="http://www.w3.org/2000/svg" xml:space="preserve" width="1762.48mm" height="291.747mm" version="1.1" style="shape-rendering:geometricPrecision; text-rendering:geometricPrecision; image-rendering:optimizeQuality; fill-rule:evenodd; clip-rule:evenodd"
viewBox="0 0 176248 29175"
 xmlns:xlink="http://www.w3.org/1999/xlink">
 <defs>
  <style type="text/css">
   <![CDATA[
    .fil0 {fill:#E31E24;fill-rule:nonzero}
    .fil1 {fill:#FEFEFE;fill-rule:nonzero}
   ]]>
  </style>
 </defs>
 <g id="Слой_x0020_1">
  <metadata id="CorelCorpID_0Corel-Layer"/>
  <path class="fil0" d="M18262 2c-14581,11903 -18227,26497 -18227,26497 0,0 13268,6733 35387,-1302 -533,-2455 -533,-2455 -1649,-4612 -14209,5654 -23534,3590 -26596,2492 484,-3496 6386,-14681 15735,-18487 -1227,-1488 -2195,-2753 -4650,-4588zm9151 9386c-5431,1748 -11457,8853 -11457,8853 0,0 8332,297 15214,-2679 335,-818 -2008,-6286 -3757,-6175z"/>
  <path class="fil1" d="M138386 7289l0 12469 -4348 0 0 -18608 4413 0 11062 12405 0 -12405 4412 0 0 18608 -4412 0 -11126 -12469zm1715 15321l1570 0 0 1527c0,491 22,821 65,982 43,161 173,304 401,420 217,116 531,179 953,179 336,0 639,-27 899,-89 260,-63 487,-152 671,-268l0 -2750 1570 0 0 6393 -1570 0 0 -2580c-314,116 -628,205 -931,268 -314,63 -617,89 -909,89 -769,0 -1418,-152 -1938,-455 -520,-295 -780,-821 -780,-1563l0 -2152zm7741 6393l0 -6393 5738 0 0 1080 -4168 0 0 1420 3876 0 0 1080 -3876 0 0 1732 4320 0 0 1080 -5890 0zm6442 0l2674 -3330 -2425 -3063 1819 0 1527 1902 1527 -1902 1841 0 -2436 3063 2674 3330 -1884 0 -1722 -2170 -1722 2170 -1873 0zm8023 -6393l1462 0 0 4259 3140 -4259 1559 0 0 6393 -1462 0 0 -4188 -3140 4188 -1559 0 0 -6393zm7785 0l1462 0 0 4259 3140 -4259 1559 0 0 6393 -1462 0 0 -4188 -3140 4188 -1559 0 0 -6393zm-65417 0l1570 0 0 2554 2090 0c985,0 1700,188 2144,571 444,384 660,839 660,1366 0,438 -130,813 -401,1116 -271,304 -574,509 -920,625 -336,107 -834,161 -1483,161l-3660 0 0 -6393zm1570 5313l1527 0c487,0 834,-18 1018,-63 195,-36 368,-125 509,-259 152,-143 227,-313 227,-518 0,-286 -130,-500 -379,-634 -260,-134 -693,-205 -1310,-205l-1592 0 0 1679zm6182 1080l0 -6393 5738 0 0 1080 -4168 0 0 1420 3876 0 0 1080 -3876 0 0 1732 4320 0 0 1080 -5890 0zm10253 -6393l1462 0 0 4259 3140 -4259 1559 0 0 6393 -1462 0 0 -4188 -3140 4188 -1559 0 0 -6393zm8867 1741l-1527 -295c325,-1045 1267,-1563 2804,-1563 909,0 1592,161 2057,491 466,330 693,723 693,1170 0,304 -108,580 -314,830 -217,241 -531,455 -953,643 509,152 899,357 1159,616 249,268 379,598 379,991 0,563 -249,1018 -747,1366 -498,339 -1245,518 -2241,518 -812,0 -1451,-107 -1916,-339 -476,-223 -823,-634 -1061,-1250l1429 -384c152,384 346,634 596,750 238,116 541,170 909,170 487,0 855,-89 1083,-268 227,-179 336,-375 336,-607 0,-259 -130,-473 -379,-634 -260,-161 -650,-241 -1159,-241l-357 0 0 -964 184 0c476,0 845,-89 1094,-268 249,-179 379,-411 379,-705 0,-232 -97,-429 -303,-589 -206,-161 -509,-241 -888,-241 -650,0 -1072,268 -1256,804zm-86119 4652l0 -5313 -2295 0 0 -1080 6150 0 0 1080 -2285 0 0 5313 -1570 0zm4872 0l0 -6393 5738 0 0 1080 -4168 0 0 1420 3876 0 0 1080 -3876 0 0 1732 4320 0 0 1080 -5890 0zm7222 0l0 -6393 2512 0c953,0 1570,27 1862,98 444,89 812,304 1115,625 292,321 444,732 444,1241 0,393 -87,723 -260,991 -173,268 -390,482 -650,634 -271,152 -541,250 -812,304 -379,54 -920,89 -1624,89l-1018 0 0 2411 -1570 0zm1570 -5313l0 1821 855 0c617,0 1029,-36 1234,-98 206,-71 368,-179 487,-321 119,-143 173,-304 173,-500 0,-232 -87,-420 -249,-571 -162,-152 -368,-250 -628,-286 -184,-27 -552,-45 -1115,-45l-758 0zm5630 5313l0 -6393 2349 0 1397 4357 1364 -4357 2360 0 0 6393 -1451 0 0 -5036 -1537 5036 -1505 0 -1516 -5036 -11 5036 -1451 0zm8716 -3161c0,-652 119,-1196 357,-1643 173,-321 411,-616 725,-875 303,-259 639,-455 996,-580 487,-170 1039,-250 1678,-250 1137,0 2057,295 2739,875 682,589 1029,1402 1029,2446 0,1036 -336,1839 -1018,2429 -682,580 -1592,875 -2728,875 -1159,0 -2079,-295 -2761,-875 -671,-580 -1018,-1375 -1018,-2402zm1613 -45c0,732 206,1277 606,1652 411,375 931,563 1548,563 628,0 1137,-188 1548,-554 401,-375 596,-929 596,-1679 0,-732 -195,-1277 -585,-1634 -390,-366 -909,-545 -1559,-545 -639,0 -1169,179 -1559,545 -401,366 -595,920 -595,1652zm7168 -3188l5793 0 0 1080 -4223 0 0 1482 2090 0c574,0 1061,54 1440,170 379,116 704,330 974,652 271,313 401,679 401,1098 0,429 -130,804 -411,1107 -271,313 -574,518 -920,634 -346,116 -845,170 -1483,170l-3660 0 0 -6393zm1570 5313l1527 0c476,0 823,-18 1018,-63 195,-36 368,-125 520,-259 141,-143 217,-313 217,-509 0,-295 -130,-509 -379,-643 -260,-134 -693,-196 -1310,-196l-1592 0 0 1670zm6182 1080l0 -6393 5738 0 0 1080 -4168 0 0 1420 3876 0 0 1080 -3876 0 0 1732 4320 0 0 1080 -5890 0zm7785 -6393l5424 0 0 6393 -1570 0 0 -5313 -2328 0 0 2732c0,777 -32,1321 -97,1634 -65,304 -217,554 -455,723 -249,170 -628,259 -1159,259 -184,0 -509,-18 -996,-45l0 -1000 346 0c336,0 552,-36 660,-107 119,-71 173,-250 173,-536l0 -1098 0 -3643zm74264 -10013l-5882 0 0 -4284 5882 0 4220 0 0 4284 0 2813 0 3773 0 575 -14707 0c-3133,0 -5690,-2558 -5690,-5755l0 -7162c0,-3133 2558,-5755 5690,-5755l14707 0 0 4348 -14643 0c-768,0 -1407,639 -1407,1470l0 7034c0,831 639,1470 1407,1470l10422 0 0 -2813zm-128878 -11307l4220 0 0 14195 14260 0 0 4221 -14260 0 -4220 0 0 -18416zm60140 -138l-15538 0c-3197,0 -5755,2558 -5755,5691 0,3197 2558,5755 5755,5755l959 0 10039 0c639,0 1151,511 1151,1151l0 576c0,639 -511,1151 -1151,1151l-15794 0 0 4285 15538 0c3133,0 5691,-2558 5691,-5691 0,-3197 -2558,-5755 -5691,-5755l-9847 0 -1215 0c-640,0 -1151,-511 -1151,-1151l0 -576c0,-639 511,-1151 1151,-1151l15857 0 0 -4284zm22891 4284l0 -4348 -20908 0 0 4348 8312 0 0 14323 4284 0 0 -14323 8312 0zm6011 -4284l-4348 0 0 18607 4348 0 0 -18607zm-69569 4284l12277 0c576,0 1023,511 1023,1087l0 3069 -11510 0 0 4156 11510 0 0 5947 4348 0 0 -13172c0,-3069 -2494,-5563 -5499,-5563l-12021 0c-3005,0 -5499,2494 -5499,5563l-11 7168 4352 0 7 -7168c0,-575 448,-1087 1023,-1087z"/>
 </g>
</svg>
