<?xml version="1.0" encoding="utf-8"?>
<!-- Generator: Adobe Illustrator 18.0.0, SVG Export Plug-In . SVG Version: 6.00 Build 0)  -->
<!DOCTYPE svg PUBLIC "-//W3C//DTD SVG 1.1//EN" "http://www.w3.org/Graphics/SVG/1.1/DTD/svg11.dtd">
<svg version="1.1" id="Capa_1" xmlns:sketch="http://www.bohemiancoding.com/sketch/ns"
	 xmlns="http://www.w3.org/2000/svg" xmlns:xlink="http://www.w3.org/1999/xlink" x="0px" y="0px" viewBox="0 0 612 792"
	 enable-background="new 0 0 612 792" xml:space="preserve">
<title>icon 17 cloud snowflakes</title>
<desc>Created with Sketch.</desc>
<g>
	<path style="fill:#ffffff" d="M242.9,591.1c-1.9-3.8-7.7-5.7-13.4-3.8l-19.1,11.5v-21c0-5.7-3.8-9.6-9.6-9.6s-9.6,3.8-9.6,9.6v21l-19.1-11.5
		c-3.8-1.9-9.6,0-13.4,3.8c-1.9,3.8-1.9,9.6,3.8,13.4l19.1,11.5l-19.1,11.5c-3.8,1.9-5.7,7.6-3.8,13.4c3.8,3.8,9.6,5.7,13.4,1.9
		l19.1-11.5v21c0,5.7,3.8,9.6,9.6,9.6s9.6-3.8,9.6-9.6v-21l19.1,11.5c3.8,1.9,9.6,0,13.4-3.8c1.9-3.8,0-9.6-3.8-11.5l-19.1-11.5
		l19.1-11.5C242.9,602.5,244.8,596.8,242.9,591.1z"/>
	<path style="fill:#ffffff" d="M357.6,610.2c-1.9-3.8-7.6-5.7-13.4-3.8l-19.1,11.5v-21c0-5.7-3.8-9.6-9.6-9.6s-9.6,3.8-9.6,9.6v21l-19.1-11.5
		c-3.8-1.9-9.6,0-13.4,3.8c-1.9,3.8-1.9,9.6,3.8,13.4l19.1,11.5l-19.1,11.5c-3.8,1.9-5.7,7.6-3.8,13.4c1.9,3.8,7.7,5.7,13.4,3.8
		l19.1-11.5v21c0,5.7,3.8,9.6,9.6,9.6s9.6-3.8,9.6-9.6v-21l19.1,11.5c3.8,1.9,9.6,0,13.4-3.8c1.9-5.7,0-11.5-3.8-13.4l-19.1-11.5
		l19.1-11.5C357.6,621.7,359.5,615.9,357.6,610.2z"/>
	<path style="fill:#ffffff" d="M472.4,591.1c-1.9-3.8-7.6-5.7-13.4-3.8l-19.1,11.5v-21c0-5.7-3.8-9.6-9.6-9.6s-9.6,3.8-9.6,9.6v21l-19.1-11.5
		c-3.8-1.9-9.6,0-13.4,3.8c-1.9,3.8-1.9,9.6,3.8,13.4l19.1,11.5l-19.1,11.5c-3.8,1.9-5.7,7.6-3.8,13.4c1.9,3.8,7.6,5.7,13.4,3.8
		l19.1-11.5v21c0,5.7,3.8,9.6,9.6,9.6s9.6-3.8,9.6-9.6v-21l19.1,11.5c3.8,1.9,9.6,0,13.4-3.8c1.9-5.7,0-11.5-3.8-13.4l-19.1-11.5
		l19.1-11.5C472.4,602.5,474.3,596.8,472.4,591.1z"/>
	<path style="fill:#ffffff" d="M516.4,365.4c0-57.4-47.8-103.3-105.2-103.3c-21,0-38.2,5.7-55.5,15.3c-24.9-32.5-63.1-53.5-107.1-53.5
		c-74.6,0-133.9,59.3-133.9,133.9c0,1.9,0,5.7,0,7.6c-34.4,15.3-57.4,47.8-57.4,88c0,53.5,42.1,95.6,95.6,95.6h325.1
		c53.5,0,95.6-42.1,95.6-95.6C573.8,413.2,550.8,380.7,516.4,365.4z"/>
</g>
</svg>
