<?xml version="1.0" encoding="UTF-8"?>
<!DOCTYPE svg PUBLIC "-//W3C//DTD SVG 1.0//EN" "http://www.w3.org/TR/2001/REC-SVG-20010904/DTD/svg10.dtd">
<!-- Creator: CorelDRAW X6 -->
<svg xmlns="http://www.w3.org/2000/svg" xml:space="preserve" width="366px" height="591px" version="1.0" style="shape-rendering:geometricPrecision; text-rendering:geometricPrecision; image-rendering:optimizeQuality; fill-rule:evenodd; clip-rule:evenodd"
viewBox="0 0 78 125"
 xmlns:xlink="http://www.w3.org/1999/xlink">
 <defs>
  <style type="text/css">
   <![CDATA[
    .fil0 {fill:#FEFEFE}
   ]]>
  </style>
 </defs>
 <g id="Слой_x0020_1">
  <metadata id="CorelCorpID_0Corel-Layer"/>
  <path class="fil0" d="M6 21c0,-2 2,-3 3,-3l16 0 26 0 16 0c2,0 3,2 3,3l0 94c0,2 -2,3 -3,3l-58 0c-2,0 -3,-2 -3,-3l0 -94zm1 104l62 0c5,0 9,-4 9,-9l0 -97c0,-5 -4,-9 -9,-9l-11 0 0 -5c0,-4 -2,-5 -5,-5l-28 0c-4,0 -5,2 -5,5l0 5 -11 0c-5,0 -9,4 -9,9l0 97c0,5 4,9 9,9l-2 0z"/>
  <polygon class="fil0" points="50,26 14,72 36,72 28,107 64,60 40,60 "/>
 </g>
</svg>
