<?xml version="1.0" encoding="UTF-8"?>
<!DOCTYPE svg PUBLIC "-//W3C//DTD SVG 1.0//EN" "http://www.w3.org/TR/2001/REC-SVG-20010904/DTD/svg10.dtd">
<!-- Creator: CorelDRAW X6 -->
<svg xmlns="http://www.w3.org/2000/svg" xml:space="preserve" width="591px" height="591px" version="1.0" style="shape-rendering:geometricPrecision; text-rendering:geometricPrecision; image-rendering:optimizeQuality; fill-rule:evenodd; clip-rule:evenodd"
viewBox="0 0 479 479"
 xmlns:xlink="http://www.w3.org/1999/xlink">
 <defs>
  <style type="text/css">
   <![CDATA[
    .fil0 {fill:#FEFEFE}
   ]]>
  </style>
 </defs>
 <g id="Слой_x0020_1">
  <metadata id="CorelCorpID_0Corel-Layer"/>
  <path class="fil0" d="M429 50c-45,-45 -101,-61 -118,-43l-72 72c-11,11 -20,47 -16,84l-217 217c-13,13 -2,44 23,70 26,26 57,36 70,23l217 -217c37,4 73,-5 84,-16l72 -72c18,-18 2,-74 -43,-118l0 0zm-227 227c-10,-10 -7,-29 7,-43 14,-14 33,-17 43,-7 10,10 7,29 -7,43 -14,14 -33,17 -43,7l0 0zm168 -167c-35,-35 -43,-80 -40,-83 3,-3 47,7 81,42 35,35 45,78 42,81 -3,3 -49,-6 -83,-40z"/>
 </g>
</svg>
