<?xml version="1.0" encoding="UTF-8"?>
<!DOCTYPE svg PUBLIC "-//W3C//DTD SVG 1.0//EN" "http://www.w3.org/TR/2001/REC-SVG-20010904/DTD/svg10.dtd">
<!-- Creator: CorelDRAW X6 -->
<svg xmlns="http://www.w3.org/2000/svg" xml:space="preserve" width="591px" height="591px" version="1.0" style="shape-rendering:geometricPrecision; text-rendering:geometricPrecision; image-rendering:optimizeQuality; fill-rule:evenodd; clip-rule:evenodd"
viewBox="0 0 369 369"
 xmlns:xlink="http://www.w3.org/1999/xlink">
 <defs>
  <style type="text/css">
   <![CDATA[
    .fil0 {fill:#FEFEFE}
   ]]>
  </style>
 </defs>
 <g id="Слой_x0020_1">
  <metadata id="CorelCorpID_0Corel-Layer"/>
  <path class="fil0" d="M184 0l16 22 17 -19 12 24 20 -16 7 26 22 -12 3 26 24 -8 -2 26 25 -4 -7 26 25 1 -11 24 24 5 -15 22 23 9 -19 19 21 13 -22 16 19 17 -24 12 16 20 -26 7 12 22 -26 3 8 24 -26 -2 4 25 -26 -7 -1 25 -24 -11 -5 24 -22 -15 -9 23 -19 -19 -13 21 -16 -22 -17 19 -12 -24 -20 16 -7 -26 -22 12 -3 -26 -24 8 2 -26 -25 4 7 -26 -25 -1 11 -24 -24 -5 15 -22 -23 -9 19 -19 -21 -13 22 -16 -19 -17 24 -12 -16 -20 26 -7 -12 -22 26 -3 -8 -24 26 2 -4 -25 26 7 1 -25 24 11 5 -24 22 15 9 -23 19 19 13 -21zm84 249l-33 10 -59 -159 24 -6 38 118 -24 -121 35 -10 40 116 -26 -121 26 -6 29 167 -33 10 -40 -115 24 118zm-188 51l-43 -164 24 -6 35 70 -21 -75 24 -6 43 164 -24 6 -32 -64 18 67 -24 6 0 2zm75 -21l-43 -164 54 -14 5 14 -32 8 14 56 32 -8 5 14 -32 8 16 62 32 -8 5 16 -54 14 -2 2z"/>
 </g>
</svg>
