<?xml version="1.0" encoding="iso-8859-1"?>
<!-- Generator: Adobe Illustrator 16.0.0, SVG Export Plug-In . SVG Version: 6.00 Build 0)  -->
<!DOCTYPE svg PUBLIC "-//W3C//DTD SVG 1.1//EN" "http://www.w3.org/Graphics/SVG/1.1/DTD/svg11.dtd">
<svg version="1.1" id="Layer_1" xmlns="http://www.w3.org/2000/svg" xmlns:xlink="http://www.w3.org/1999/xlink" x="0px" y="0px"
	 width="36px" height="36px" viewBox="0 0 36 36" style="enable-background:new 0 0 36 36;" xml:space="preserve">
<g>
	<circle style="fill:#FFFFFF;" cx="19.331" cy="19.137" r="8.062"/>
	<path style="fill:#FFFFFF;" d="M8.893,20.477c0.047-0.035,0.074-0.09,0.074-0.149v-2.381c0-0.058-0.027-0.113-0.074-0.149
		S8.787,17.75,8.73,17.766l-4.424,1.19c-0.164,0.044-0.164,0.318,0,0.363l4.424,1.19C8.785,20.524,8.846,20.512,8.893,20.477z"/>
	<path style="fill:#FFFFFF;" d="M34.488,18.956l-4.422-1.19c-0.057-0.015-0.117-0.003-0.164,0.032s-0.072,0.091-0.072,0.149v2.381
		c0,0.059,0.025,0.114,0.072,0.149c0.047,0.036,0.107,0.047,0.164,0.032l4.422-1.19C34.652,19.274,34.652,19,34.488,18.956z"/>
	<path style="fill:#FFFFFF;" d="M20.521,29.247h-2.381c-0.059,0-0.115,0.027-0.148,0.074c-0.037,0.046-0.049,0.106-0.033,0.162
		l1.189,4.423c0.045,0.164,0.32,0.164,0.363,0l1.191-4.423c0.014-0.056,0.002-0.116-0.033-0.163
		C20.635,29.274,20.58,29.247,20.521,29.247z"/>
	<path style="fill:#FFFFFF;" d="M18.141,9.028h2.381c0.059,0,0.113-0.027,0.148-0.074s0.047-0.106,0.033-0.163l-1.191-4.423
		c-0.043-0.164-0.318-0.164-0.363,0l-1.189,4.423c-0.016,0.056-0.004,0.116,0.033,0.162C18.025,9,18.082,9.028,18.141,9.028z"/>
	<path style="fill:#FFFFFF;" d="M11.34,25.444c-0.041-0.042-0.1-0.061-0.156-0.053c-0.059,0.007-0.109,0.042-0.139,0.092
		l-2.285,3.97c-0.086,0.146,0.107,0.34,0.256,0.256l3.969-2.286c0.051-0.029,0.084-0.08,0.094-0.138
		c0.006-0.058-0.014-0.115-0.055-0.157L11.34,25.444z"/>
	<path style="fill:#FFFFFF;" d="M27.32,12.831c0.041,0.042,0.1,0.061,0.158,0.053c0.057-0.008,0.107-0.042,0.139-0.092l2.285-3.97
		c0.084-0.147-0.109-0.341-0.258-0.256l-3.969,2.286c-0.049,0.028-0.084,0.08-0.092,0.138c-0.008,0.058,0.012,0.116,0.053,0.157
		L27.32,12.831z"/>
	<path style="fill:#FFFFFF;" d="M26.703,25.483c-0.029-0.05-0.08-0.084-0.137-0.092c-0.059-0.008-0.117,0.012-0.158,0.054
		l-1.684,1.683c-0.041,0.042-0.061,0.1-0.053,0.157c0.008,0.058,0.041,0.109,0.092,0.138l3.969,2.286
		c0.148,0.084,0.342-0.109,0.258-0.256L26.703,25.483z"/>
	<path style="fill:#FFFFFF;" d="M10.148,12.807c0.025,0.047,0.072,0.077,0.127,0.082s0.111-0.017,0.152-0.058l1.684-1.684
		c0.041-0.041,0.063-0.097,0.057-0.152c-0.002-0.054-0.033-0.102-0.08-0.127L8.418,8.88C8.281,8.807,8.086,9,8.16,9.137
		L10.148,12.807z"/>
</g>
</svg>
