<?xml version="1.0" encoding="UTF-8"?>
<!DOCTYPE svg PUBLIC "-//W3C//DTD SVG 1.1//EN" "http://www.w3.org/Graphics/SVG/1.1/DTD/svg11.dtd">
<!-- Creator: CorelDRAW X6 -->
<svg xmlns="http://www.w3.org/2000/svg" xml:space="preserve" width="79.9998mm" height="30mm" version="1.1" style="shape-rendering:geometricPrecision; text-rendering:geometricPrecision; image-rendering:optimizeQuality; fill-rule:evenodd; clip-rule:evenodd"
viewBox="0 0 1073 403"
 xmlns:xlink="http://www.w3.org/1999/xlink">
 <defs>
  <style type="text/css">
   <![CDATA[
    .fil0 {fill:#FEFEFE}
    .fil1 {fill:url(#id0)}
   ]]>
  </style>
  <linearGradient id="id0" gradientUnits="userSpaceOnUse" x1="820.643" y1="243.727" x2="773.663" y2="38.901">
   <stop offset="0" style="stop-color:#EF7F1A"/>
   <stop offset="1" style="stop-color:#FFED00"/>
  </linearGradient>
 </defs>
 <g id="Слой_x0020_1">
  <metadata id="CorelCorpID_0Corel-Layer"/>
  <g id="_577598432">
   <path class="fil0" d="M263 179l-144 0c0,0 -27,-1 -48,13 -18,12 -35,31 -41,60l-30 151 87 0 19 -94 132 0 7 -38 -132 0c0,0 2,-20 15,-37 11,-13 34,-13 34,-13l93 0 8 -42zm588 72l57 85 -87 66 58 0 48 -37 25 37 87 0 -55 -83 90 -68 -58 0 -51 39 -26 -39 -87 0zm-107 0l-30 151 87 0 30 -151 -87 0zm-266 151l51 0 18 -89c0,0 39,59 49,71 10,12 21,18 34,18 13,0 65,0 65,0l30 -151 -47 0 -19 98 -56 -84c-9,-14 -32,-14 -32,-14l-62 0 -30 151zm10 -151l-162 0c0,0 -52,4 -68,64 -16,59 -5,87 41,88 46,0 159,0 159,0l6 -29c0,0 -103,0 -106,0 -8,-1 -26,-14 -18,-35l131 0 5 -23 -131 1c0,0 4,-27 33,-35l104 0 6 -30z"/>
   <path class="fil1" d="M879 0c0,0 -56,100 -88,113 -39,19 -91,-15 -91,-15 0,0 51,31 46,85 -7,54 -29,100 -29,100 0,0 38,-66 77,-80 32,-12 56,-14 98,2 0,0 -55,-25 -57,-67 0,-40 27,-104 43,-137l0 0z"/>
  </g>
 </g>
</svg>
